<svg fill="none" preserveAspectRatio="xMidYMid meet" viewBox="0 0 120 24" xmlns="http://www.w3.org/2000/svg">
  <g id="ai-station-logo">
    <!-- Star icon -->
    <g id="star-icon" transform="translate(0, 2)">
      <!-- 8-pointed star burst -->
      <g fill="#1E7DD8">
        <!-- Main star points -->
        <path d="M10 0L11.5 7.5L10 10L8.5 7.5Z" />
        <path d="M20 10L12.5 11.5L10 10L12.5 8.5Z" />
        <path d="M10 20L8.5 12.5L10 10L11.5 12.5Z" />
        <path d="M0 10L7.5 8.5L10 10L7.5 11.5Z" />
        
        <!-- Diagonal points -->
        <path d="M17.07 2.93L12.83 7.17L10 10L7.17 7.17Z" />
        <path d="M17.07 17.07L12.83 12.83L10 10L12.83 7.17Z" />
        <path d="M2.93 17.07L7.17 12.83L10 10L12.83 12.83Z" />
        <path d="M2.93 2.93L7.17 7.17L10 10L7.17 12.83Z" />
      </g>
    </g>
    
    <!-- AI.station text -->
    <g id="text">
      <!-- AI text -->
      <text x="28" y="16" fill="#1E7DD8" style="font-size: 16px; font-family: system-ui, -apple-system, sans-serif; font-weight: 600;">
        AI
      </text>
      
      <!-- Dot -->
      <circle cx="46" cy="12" r="1.5" fill="#1E7DD8" />
      
      <!-- station text -->
      <text x="52" y="16" fill="#1E7DD8" style="font-size: 16px; font-family: system-ui, -apple-system, sans-serif; font-weight: 600;">
        station
      </text>
    </g>
  </g>
</svg>